<svg viewBox="0 0 24 24" fill="none" xmlns="http://www.w3.org/2000/svg" id="Treadmill--Streamline-Solar" height="24" width="24">
  <desc>
    Treadmill Streamline Icon: https://streamlinehq.com
  </desc>
  <path d="M17 4c0 1.10457 -0.8954 2 -2 2s-2 -0.89543 -2 -2 0.8954 -2 2 -2 2 0.89543 2 2Z" fill="#FFFFFF" stroke-width="1"></path>
  <path fill-rule="evenodd" clip-rule="evenodd" d="M6.21002 6.0468c1.39383 -0.87114 3.12591 -1.00452 4.63668 -0.35705 1.1816 0.50641 1.4781 2.04608 0.5691 2.95511L9.76183 10.2988c-0.34947 0.3495 -0.32342 0.9236 0.05624 1.24l0.99643 0.8303c0.5928 0.494 0.9355 1.2258 0.9355 1.9974V16c0 0.4142 -0.3358 0.75 -0.75 0.75s-0.75 -0.3358 -0.75 -0.75v-1.6335c0 -0.3265 -0.145 -0.6361 -0.39578 -0.845l-0.99642 -0.8304c-1.05728 -0.881 -1.1298 -2.4798 -0.15663 -3.45293L10.3551 7.5842c0.1587 -0.15865 0.1069 -0.42735 -0.0993 -0.51573 -1.05919 -0.45395 -2.27356 -0.36043 -3.25078 0.25033L4.8975 8.636c-0.35125 0.21953 -0.81397 0.11275 -1.0335 -0.2385 -0.21953 -0.35125 -0.11275 -0.81397 0.2385 -1.0335l2.10752 -1.3172ZM11.75 10c0 -0.41421 0.3358 -0.75 0.75 -0.75h3c0.4142 0 0.75 0.33579 0.75 0.75 0 0.4142 -0.3358 0.75 -0.75 0.75h-3c-0.4142 0 -0.75 -0.3358 -0.75 -0.75Zm-4.21967 3.4697c0.29289 0.2929 0.29289 0.7677 0 1.0606l-0.32843 0.3285c-0.02882 0.0288 -0.05728 0.0573 -0.0854 0.0855 -0.49351 0.4944 -0.8841 0.8858 -1.39255 1.0964s-1.06135 0.21 -1.75995 0.2094c-0.0398 -0.0001 -0.08008 -0.0001 -0.12085 -0.0001H3c-0.41421 0 -0.75 -0.3358 -0.75 -0.75s0.33579 -0.75 0.75 -0.75h0.84315c0.87869 0 1.10911 -0.0133 1.30678 -0.0951 0.19766 -0.0819 0.36998 -0.2355 0.99131 -0.8568l0.32843 -0.3284c0.29289 -0.2929 0.76777 -0.2929 1.06066 0Z" fill="#FFFFFF" stroke-width="1"></path>
  <path d="M3.08684 22H19.4888C20.8757 22 22 20.8757 22 19.4888c0 -1.56 -1.4074 -2.7425 -2.9441 -2.4736l-0.1628 0.0285 1.1402 -8.04342 0.0005 -0.00287c0.0526 -0.35069 0.0841 -0.55294 0.123 -0.69892 0.0176 -0.06597 0.0317 -0.09966 0.0397 -0.11561 0.0037 -0.00739 0.0064 -0.01144 0.0064 -0.01144l0.0008 -0.00103 0.001 -0.00086s0.0039 -0.00295 0.0112 -0.00699c0.0155 -0.00871 0.0485 -0.02443 0.1135 -0.04522 0.1443 -0.04611 0.3455 -0.08747 0.695 -0.15736l1.1227 -0.22454c0.4062 -0.08124 0.6696 -0.47636 0.5883 -0.88253 -0.0812 -0.40617 -0.4763 -0.66958 -0.8825 -0.58835l-1.1566 0.23133c-0.3036 0.06068 -0.5891 0.11775 -0.8235 0.19263 -0.2611 0.08345 -0.5281 0.20894 -0.7551 0.44727 -0.2271 0.23833 -0.3395 0.51107 -0.4101 0.77593 -0.0635 0.23769 -0.1066 0.52564 -0.1525 0.83182l-0.0052 0.03422 -1.2104 8.53784 -14.44001 2.527C2.37943 19.9336 2 20.3852 2 20.9132 2 21.5134 2.48659 22 3.08684 22Z" fill="#FFFFFF" stroke-width="1"></path>
</svg>